
        <svg xmlns="http://www.w3.org/2000/svg" xmlns:xlink="http://www.w3.org/1999/xlink" version="1.1" width="3185.579793507838" 
        height="1028.112056033422" viewBox="0 0 3185.579793507838 1028.112056033422">
			
			<g transform="scale(9.278989675391896) translate(10, 10)">
				<defs id="SvgjsDefs2072"></defs><g id="SvgjsG2073" featureKey="mlRtrp-0" transform="matrix(0.7952870798075011,0,0,0.7952870798075011,118.1092787512402,74.73520038113259)" fill="#283c63"><path d="M6.38 11.9 c1.52 0.72 3.5 1.86 3.5 3.92 c0 0.6 -0.1 1.76 -0.76 2.74 c-0.74 1.1 -1.9 1.64 -3.5 1.64 c-1.7 0 -3.68 -0.82 -4.3 -2.68 c-0.02 -0.06 0 -0.12 0.06 -0.16 l1.84 -1.58 c0.08 -0.06 0.2 -0.06 0.26 0.04 c0.04 0.1 0.12 0.26 0.22 0.46 c0.3 0.62 1.02 1.24 1.82 1.24 c0.62 0 1.46 -0.34 1.46 -1.3 c0 -0.92 -1.26 -1.44 -2.04 -1.74 c-0.9 -0.36 -1.82 -0.82 -2.6 -1.5 c-0.82 -0.76 -1.22 -1.6 -1.22 -2.6 c0 -2.5 2.3 -3.76 4.48 -3.76 c1.72 0 3 0.9 3.84 2.68 c0.04 0.08 0 0.18 -0.06 0.22 l-1.78 1.24 c-0.08 0.04 -0.12 0.04 -0.2 -0.06 c-0.68 -0.98 -1.28 -1.44 -2.08 -1.44 c-0.42 0 -1.4 0.16 -1.4 0.9 c0 0.9 1.66 1.36 2.46 1.74 z M2.74 17.42 c0.5 1 1.88 1.58 3 1.58 c1.46 0 2.64 -1 2.8 -2.52 c0.2 -1.86 -1.26 -2.66 -2.7 -3.38 l-0.64 -0.28 c-1.48 -0.66 -2.56 -1.16 -2.56 -2.54 c0 -1.52 1.4 -2.22 2.78 -2.22 c1.26 0 1.92 0.74 2.26 1.2 c0.12 0.16 0.32 0.02 0.2 -0.14 c-0.34 -0.42 -1.06 -1.3 -2.46 -1.3 c-1.58 0 -3.02 0.78 -3.02 2.46 c0 1.5 1.2 2.08 2.72 2.78 l0.62 0.3 c1.98 0.94 2.7 1.82 2.54 3.1 c-0.3 2.04 -1.86 2.3 -2.54 2.3 c-1.5 0 -2.5 -0.9 -2.8 -1.46 c-0.1 -0.1 -0.24 0 -0.2 0.12 z M19.467 6.619999999999999 c1.72 0 2.92 0.38 3.68 1.2 c0.6 0.66 0.88 1.6 0.88 2.94 l0 5.26 c0 1.38 -0.28 2.34 -0.88 2.98 c-0.78 0.8 -1.96 1.2 -3.68 1.2 c-1.78 0 -2.94 -0.4 -3.7 -1.2 c-0.58 -0.64 -0.9 -1.6 -0.9 -2.98 l0 -5.26 c0 -1.34 0.32 -2.28 0.9 -2.96 c0.78 -0.8 1.96 -1.18 3.7 -1.18 z M21.366999999999997 15.42 l0 -4 c0 -1.76 -0.94 -2.12 -1.8 -2.12 l-0.24 0 c-1.28 0 -1.78 0.82 -1.78 2.12 l0 4 c0 1.76 0.94 2.14 1.78 2.14 l0.24 0 c1.28 0 1.78 -0.86 1.8 -2.14 z M16.127 10.9 l0 4.96 c0 0.94 0.24 1.72 0.8 2.3 c0.52 0.52 1.32 0.8 2.3 0.8 l0.52 0 c1.88 0 3.1 -1.2 3.1 -3.1 l0 -4.96 c0 -2.04 -1.08 -3.14 -3.1 -3.14 l-0.52 0 c-2.04 0 -3.1 1.1 -3.1 3.14 z M19.747 18.7 l-0.52 0 c-0.94 0 -1.64 -0.24 -2.14 -0.74 s-0.76 -1.2 -0.76 -2.1 l0 -4.96 c0 -1.9 1.02 -2.9 2.9 -2.9 l0.52 0 c1.9 0 2.84 0.98 2.84 2.9 l0 4.96 c0 0.84 -0.26 1.6 -0.8 2.12 c-0.52 0.44 -1.22 0.72 -2.04 0.72 z M30.973999999999997 8 l0 10.78 c0 0.14 0.24 0.18 0.24 0 l0 -5.38 l3.68 0 c0.2 0 0.2 -0.28 0 -0.28 l-3.68 0 l0 -4.96 l4.48 0 c0.14 0 0.18 -0.26 0 -0.26 l-4.6 0 c-0.06 0 -0.12 0.02 -0.12 0.1 z M32.233999999999995 20 l-2.3 0 c-0.1 0 -0.16 -0.08 -0.16 -0.18 l0 -12.84 c0 -0.1 0.06 -0.18 0.16 -0.18 l6.8 0 c0.1 0 0.18 0.08 0.18 0.18 l0 2.14 c0 0.1 -0.08 0.18 -0.18 0.18 l-4.32 0 l0 2.72 l3.36 0 c0.1 0 0.16 0.08 0.16 0.18 l0 2.18 c0 0.1 -0.06 0.18 -0.16 0.18 l-3.36 0 l0 5.26 c0 0.1 -0.08 0.18 -0.18 0.18 z M44.020999999999994 9.3 l-2.84 0 c-0.1 0 -0.18 -0.08 -0.18 -0.18 l0 -2.14 c0 -0.1 0.08 -0.18 0.18 -0.18 l8.34 0 c0.1 0 0.18 0.08 0.18 0.18 l0 2.14 c0 0.1 -0.08 0.18 -0.18 0.18 l-2.84 0 l0 10.52 c0 0.1 -0.08 0.18 -0.18 0.18 l-2.3 0 c-0.1 0 -0.18 -0.08 -0.18 -0.18 l0 -10.52 z M48.300999999999995 7.9 l-6.04 0 c-0.14 0 -0.14 0.26 0 0.26 l2.96 0 l0 10.6 c0 0.14 0.26 0.14 0.26 0 l0 -10.6 l2.82 0 c0.2 0 0.18 -0.26 0 -0.26 z M68.948 6.800000000000001 c0.12 0 0.2 0.1 0.16 0.22 l-3.44 12.86 c-0.02 0.08 -0.1 0.12 -0.18 0.12 l-2.2 0 c-0.08 0 -0.14 -0.04 -0.18 -0.12 l-1.36 -5.06 l-1.84 5.08 c-0.02 0.06 -0.06 0.1 -0.14 0.1 l-2.12 0 c-0.08 0 -0.14 -0.04 -0.16 -0.12 l-3.42 -12.88 c-0.02 -0.1 0.04 -0.2 0.18 -0.2 l2.3 0 c0.06 0 0.12 0.06 0.14 0.12 l2.22 8.48 l1.66 -5.02 l-0.92 -3.36 c-0.04 -0.12 0.06 -0.22 0.16 -0.22 l2.48 0 c0.08 0 0.12 0.02 0.16 0.12 l1.84 8.16 l2.2 -8.16 c0.02 -0.06 0.08 -0.12 0.16 -0.12 l2.3 0 z M61.907999999999994 10.58 l-3.02 8.04 l-3.24 -10.66 c-0.04 -0.14 -0.28 -0.08 -0.24 0.06 l3.24 10.68 c0.06 0.28 0.4 0.26 0.5 0 l2.86 -7.72 l2.1 7.7 c0.08 0.3 0.44 0.3 0.5 0.02 l3.18 -10.68 c0.06 -0.14 -0.2 -0.22 -0.24 -0.06 l-3.16 10.66 l-2.92 -10.66 c-0.02 -0.14 -0.28 -0.1 -0.22 0.06 z M76.975 6.92 c0.02 -0.06 0.06 -0.12 0.14 -0.12 l2.48 0 c0.08 0 0.12 0.06 0.14 0.12 l3.46 12.86 c0.02 0.12 -0.06 0.22 -0.18 0.22 l-2.28 0 c-0.06 0 -0.12 -0.04 -0.14 -0.12 l-0.78 -2.8 l-2.92 0 l-0.76 2.8 c-0.02 0.08 -0.06 0.12 -0.14 0.12 l-2.3 0 c-0.12 0 -0.2 -0.1 -0.18 -0.22 z M77.535 14.6 l1.66 0 l-0.86 -3.02 z M80.615 15.780000000000001 l0.92 3 c0.04 0.12 0.26 0.1 0.2 -0.06 l-3.2 -10.64 c-0.06 -0.26 -0.4 -0.28 -0.46 0 l-3.1 10.64 c-0.06 0.14 0.16 0.2 0.22 0.08 l0.88 -3.02 l4.54 0 z M76.135 15.52 l2.18 -7.36 l2.22 7.36 l-4.4 0 z M95.74199999999999 14.780000000000001 c-0.28 0.58 -0.68 1.02 -1.24 1.28 l1.68 3.7 c0.06 0.12 -0.02 0.24 -0.14 0.24 l-2.46 0 c-0.08 0 -0.12 -0.04 -0.14 -0.1 l-1.56 -3.4 l-1.02 0 l0 3.32 c0 0.1 -0.08 0.18 -0.18 0.18 l-2.3 0 c-0.08 0 -0.14 -0.08 -0.14 -0.18 l0 -12.84 c0 -0.1 0.06 -0.18 0.14 -0.18 l4.16 0 c2.22 0 3.56 1.26 3.56 3.6 l0 2.52 c0 0.7 -0.12 1.36 -0.36 1.86 z M93.482 12.3 l0 -1.3 c0 -1.4 -0.52 -1.54 -2.04 -1.54 l-0.58 0 l0 4.42 l0.58 0 c1.26 0 2 -0.02 2.04 -1.58 z M89.702 18.78 l0 -3.42 l2.88 0 l1.68 3.46 c0.04 0.1 0.28 0.06 0.22 -0.12 l-1.68 -3.4 c1.56 -0.22 2.1 -1.04 2.1 -2.52 l0 -2.5 c0 -2.2 -2 -2.38 -2.62 -2.38 l-2.7 0 c-0.04 0 -0.12 0.06 -0.12 0.12 l0 10.76 c0 0.14 0.24 0.14 0.24 0 z M94.66199999999999 10.28 l0 2.5 c0 2.04 -1.3 2.32 -2.56 2.32 l-2.4 0 l0 -6.94 l2.58 0 c2.16 0 2.38 1.46 2.38 2.12 z M102.049 20 c-0.1 0 -0.16 -0.08 -0.16 -0.18 l0 -12.84 c0 -0.1 0.06 -0.18 0.16 -0.18 l6.8 0 c0.1 0 0.18 0.08 0.18 0.18 l0 2.14 c0 0.1 -0.08 0.18 -0.18 0.18 l-4.32 0 l0 2.72 l3.36 0 c0.1 0 0.16 0.08 0.16 0.18 l0 2.18 c0 0.1 -0.06 0.18 -0.16 0.18 l-3.36 0 l0 2.94 l4.32 0 c0.1 0 0.18 0.08 0.18 0.18 l0 2.14 c0 0.1 -0.08 0.18 -0.18 0.18 l-6.8 0 z M103.049 8.06 l0 10.64 c0 0.12 0.08 0.16 0.16 0.16 l4.6 0 c0.18 0 0.14 -0.24 0 -0.24 l-4.5 0 l0 -5.22 l3.68 0 c0.12 0 0.12 -0.28 0 -0.28 l-3.68 0 l0 -4.96 l4.5 0 c0.14 0 0.18 -0.26 0 -0.26 l-4.6 0 c-0.08 0 -0.16 0.06 -0.16 0.16 z"></path></g><g id="SvgjsG2074" featureKey="nameLeftFeature-0" transform="matrix(2.375042681417969,0,0,2.375042681417969,-2.3827128790577077,3.4397666805776463)" fill="#283c63"><path d="M8.9 7.359999999999999 c0.02 -0.66 0 -1.2 0 -1.84 c0 -0.74 -1.34 -0.66 -1.82 -0.64 c-2.14 0.14 -4.18 1.5 -5.16 3.36 c-0.28 0.54 -0.48 1.1 -0.62 1.68 c-0.34 1.36 -0.36 2.8 -0.2 4.18 c0.14 1.3 0.48 2.6 1.28 3.64 c1.38 1.82 3.92 2.46 6.1 2.12 c0.1 -0.02 0.2 -0.04 0.28 -0.1 c0.06 -0.04 0.12 -0.12 0.12 -0.2 l0.06 -1.14 c0.02 -0.36 0 -0.34 0 -0.7 c0 -0.48 -1 -0.12 -1.62 -0.12 c-0.6 0 -1.24 -0.02 -1.78 -0.3 c-0.96 -0.54 -1.5 -1.62 -1.8 -2.64 c-0.34 -1.1 -0.42 -2.28 -0.22 -3.4 c0.24 -1.46 0.94 -3.14 2.48 -3.64 c0.88 -0.3 1.82 -0.2 2.7 -0.1 c0.12 0.02 0.2 -0.06 0.2 -0.16 z M10.94 6.960000000000001 c-0.02 1.24 0.1 10.3 0.08 10.96 c0 0.62 0 1.24 0.02 1.86 c0 0.1 0.06 0.2 0.16 0.2 c1.4 0.06 2.78 -0.06 4.18 -0.04 c0.46 0.02 0.92 0 1.36 0 c0.44 -0.02 0.48 -0.2 0.46 -0.56 c-0.02 -0.56 -0.02 -1.06 -0.02 -1.6 c-0.02 -0.28 -0.18 -0.38 -0.42 -0.38 c-0.82 0.02 -1.64 -0.02 -2.46 0.02 c-0.14 0.02 -0.28 0.02 -0.42 0.02 c-0.24 -0.02 -0.3 -0.08 -0.32 -0.34 l0 -0.3 c-0.06 -1.66 0.06 -3.38 0.06 -5.04 c-0.02 -1.4 0 -2.66 -0.02 -3.9 c0 -0.54 0 -1.08 -0.02 -1.6 c-0.02 -0.32 0 -0.66 -0.08 -0.98 c-0.04 -0.12 -0.1 -0.28 -0.24 -0.28 l-1.88 0 c-0.32 0 -0.42 0.22 -0.44 0.54 l0 1.42 z M19.22 15.9 l-0.02 0 c0 0.5 -0.02 1.02 0 1.54 c0.02 0.64 0.06 1.28 0.1 1.92 c0 0.22 0.06 0.28 0.26 0.32 c0.42 0.1 0.82 0.12 1.24 0.12 c1.08 -0.04 2.16 0.04 3.24 0 c0.44 -0.02 0.64 0.02 1.08 -0.06 c0.4 -0.08 0.54 -0.3 0.54 -0.9 c-0.04 -0.38 -0.02 -0.54 -0.02 -1 c0 -0.66 -0.46 -0.88 -0.86 -0.86 c-0.28 0.02 -1.62 -0.02 -2.16 -0.02 c-0.9 0.02 -0.76 0.14 -0.76 -0.8 c0 -0.76 0.02 -1.74 0.02 -2.52 c0 -0.42 0.04 -0.56 0.44 -0.56 l2.5 0 c0.4 0.06 0.68 -0.22 0.68 -0.64 s0.04 -0.44 0.04 -0.86 l-0.06 -0.6 c-0.04 -0.34 -0.16 -0.46 -0.5 -0.46 c-0.22 0 -0.44 0.02 -0.66 0.04 c-0.86 0.06 -1.26 -0.06 -2.1 0 c-0.28 0 -0.32 -0.04 -0.34 -0.3 c-0.08 -0.78 0 -1.64 0.08 -2.42 c0.02 -0.32 0.1 -0.38 0.4 -0.4 l2.82 -0.02 c0.38 -0.04 0.5 -0.02 0.48 -0.4 c-0.04 -0.58 0.02 -1.18 -0.04 -1.76 c-0.04 -0.32 -0.14 -0.38 -0.5 -0.38 c-0.6 0.02 -0.74 0.02 -1.34 0.06 c-0.6 0.02 -3 0.02 -3.58 0.02 c-0.84 0 -0.9 -0.06 -0.92 0.96 c-0.04 0.8 -0.02 1.62 -0.02 2.44 c0 1.4 -0.08 6.42 -0.04 7.54 z M32.04 20.02 c0.3 0 1.4 0.02 1.62 -0.02 c0.14 -0.04 0.22 -0.4 0.26 -0.52 c0.12 -0.38 0.2 -0.78 0.3 -1.16 c0.22 -1 2.44 -9.4 3.22 -12.54 c0.04 -0.14 0.08 -0.3 0.04 -0.44 c-0.06 -0.3 -0.24 -0.34 -0.48 -0.34 c-0.46 0.02 -0.92 0 -1.38 0 c-0.52 0 -0.72 0.06 -0.88 0.64 c-0.78 2.68 -1.3 5.88 -2.02 8.6 l-0.12 0.32 c0 0.02 -0.08 0 -0.08 0 c-0.04 -0.1 -0.1 -0.18 -0.12 -0.28 c-0.72 -2.86 -1.9 -8.52 -2.1 -9.06 c-0.12 -0.32 -0.42 -0.22 -0.7 -0.22 c-0.56 0 -1.08 0.02 -1.62 0.02 c-0.2 0.02 -0.34 0.1 -0.32 0.3 c0 0.16 0.22 1.04 0.26 1.28 l0.22 0.84 c0.14 0.64 0.34 1.44 0.48 2.06 c0.76 3.18 1.58 6.36 2.48 9.5 c0.08 0.28 0.14 0.76 0.34 0.92 c0.16 0.14 0.42 0.08 0.6 0.1 z M39.52 15.9 l-0.02 0 c0 0.5 -0.02 1.02 0 1.54 c0.02 0.64 0.06 1.28 0.1 1.92 c0 0.22 0.06 0.28 0.26 0.32 c0.42 0.1 0.82 0.12 1.24 0.12 c1.08 -0.04 2.16 0.04 3.24 0 c0.44 -0.02 0.64 0.02 1.08 -0.06 c0.4 -0.08 0.54 -0.3 0.54 -0.9 c-0.04 -0.38 -0.02 -0.54 -0.02 -1 c0 -0.66 -0.46 -0.88 -0.86 -0.86 c-0.28 0.02 -1.62 -0.02 -2.16 -0.02 c-0.9 0.02 -0.76 0.14 -0.76 -0.8 c0 -0.76 0.02 -1.74 0.02 -2.52 c0 -0.42 0.04 -0.56 0.44 -0.56 l2.5 0 c0.4 0.06 0.68 -0.22 0.68 -0.64 s0.04 -0.44 0.04 -0.86 l-0.06 -0.6 c-0.04 -0.34 -0.16 -0.46 -0.5 -0.46 c-0.22 0 -0.44 0.02 -0.66 0.04 c-0.86 0.06 -1.26 -0.06 -2.1 0 c-0.28 0 -0.32 -0.04 -0.34 -0.3 c-0.08 -0.78 0 -1.64 0.08 -2.42 c0.02 -0.32 0.1 -0.38 0.4 -0.4 l2.82 -0.02 c0.38 -0.04 0.5 -0.02 0.48 -0.4 c-0.04 -0.58 0.02 -1.18 -0.04 -1.76 c-0.04 -0.32 -0.14 -0.38 -0.5 -0.38 c-0.6 0.02 -0.74 0.02 -1.34 0.06 c-0.6 0.02 -3 0.02 -3.58 0.02 c-0.84 0 -0.9 -0.06 -0.92 0.96 c-0.04 0.8 -0.02 1.62 -0.02 2.44 c0 1.4 -0.08 6.42 -0.04 7.54 z M50.44 18.5 c0 -0.52 0 -3.8 0.02 -4.06 c0.02 -0.06 0.06 -0.18 0.14 -0.18 s0.12 0.04 0.14 0.1 c0.8 1.56 1.5 3.12 2.22 4.64 c0.1 0.22 0.32 0.86 0.38 0.92 c0.08 0.12 0.22 0.08 0.34 0.08 l2.2 0.02 c0.26 0 0.32 -0.16 0.26 -0.38 c-0.16 -0.6 -1.3 -2.72 -1.56 -3.24 c-0.18 -0.4 -1.38 -2.72 -1.42 -2.9 c-0.04 -0.08 0.26 -0.22 0.3 -0.28 c0.96 -0.86 1.82 -1.74 2 -3.08 c0.2 -1.32 -0.1 -2.76 -0.96 -3.82 c-0.66 -0.78 -1.52 -1.24 -2.54 -1.3 c-0.62 -0.04 -1.22 0.02 -1.84 0 c-0.54 -0.02 -0.92 -0.02 -1.6 -0.02 c-0.32 0 -0.52 0.18 -0.54 0.52 l0 0.24 c-0.04 1.54 0 3.08 0.02 4.6 c0 2.32 -0.04 8.44 -0.04 9.32 c0 0.26 0.04 0.32 0.28 0.32 c0.14 0 0.3 0.02 0.44 0.02 c0.56 0 0.9 -0.02 1.48 -0.02 c0.44 0 0.28 -0.72 0.28 -1.5 z M50.44 10.7 l0.02 -2.02 c0.02 -0.3 -0.08 -0.9 0.2 -1.12 c0.38 -0.28 1.16 0 1.5 0.24 c1 0.68 0.92 2.36 0.38 3.3 c-0.26 0.44 -0.7 0.7 -1.2 0.84 c-0.3 0.08 -0.86 0.18 -0.88 -0.3 c0 -0.32 -0.02 -0.94 -0.02 -0.94 z"></path></g><g id="SvgjsG2075" featureKey="inlineSymbolFeature-0" transform="matrix(0.08809135692042944,0,0,0.08809135692042944,122.26459829722197,-2.484176332364482)" fill="#283c63"><g xmlns="http://www.w3.org/2000/svg"><path d="M661.3,351.9c0,10.2,14.8,21.6,24.6,28c0.7,0.5,1.4,0.8,2.2,1.2c0,0.3,0,0.6,0,0.8c0.2,8.6,0.4,16.7-2.6,23.8   c-9.5,22.2-32.8,17.1-33.2,19.7c-0.4,2.6,1.4,5,4,5.4c1.6,0.2,3.2,0.4,4.8,0.4c7.1,0,14-2.2,19.9-6.1c7.9-5.2,17.9-5.2,25.8,0   c5.9,3.9,12.9,6.1,19.9,6.1c1.6,0,3.2-0.1,4.8-0.4c2.6-0.4,4.4-2.8,4-5.4c-0.4-2.6-27.2,0.6-33.2-19.7c-2.2-7.4-2.8-15.2-2.6-23.8   c0-0.2,0-0.4,0-0.6c1-0.4,2.1-0.9,3-1.5c9.6-6.4,23.8-17.7,23.8-27.9c0-15.3-14.2-15.1-32.2-15.1S661.3,336.6,661.3,351.9z"></path><path d="M694,28.2c-202.8,0-367.8,165-367.8,367.8s165,367.8,367.8,367.8s367.8-165,367.8-367.8S896.8,28.2,694,28.2z M775.7,304.4   l-26.6,2.1c-5.6,0.4-9.8-5-8-10.3l4.3-12.8c1.6-4.7,7.1-6.8,11.4-4.3l21.9,12.7C784.2,295.2,782.3,303.9,775.7,304.4z M762.8,373.7   c0,54.7-42.7,89.9-68.7,89.9c-23.4,0-68.7-35.1-68.7-89.9s30.8-67.2,68.7-67.2C732,306.5,762.8,318.9,762.8,373.7z M639.1,306.5   l-26.6-2.1c-6.6-0.5-8.6-9.2-2.9-12.5l21.9-12.7c4.3-2.5,9.8-0.4,11.4,4.3l4.3,12.8C648.9,301.5,644.7,306.9,639.1,306.5z    M939.6,600.8c-4.6-7.2-9.4-14.3-14.3-21.3c-33.8-47.9-49.6-106.8-42-165c0.9-7.3,1.4-14.8,1.4-22.4c0-35.6-10.8-68.7-29.4-96.7   c-6.8-10.2-9-22.8-5.9-34.6c7.2-27.1,16.9-74.3,0.6-81.5c-15-6.6-34.6-0.7-51.4,13.7c-15.9,13.6-37.9,19.7-59.3,15.5   c-14.1-2.7-29.3-4.6-45.3-5.1c-16,0.5-31.2,2.3-45.3,5.1c-21.4,4.2-43.4-2-59.3-15.5c-16.9-14.4-36.4-20.3-51.4-13.7   c-16.3,7.2-6.6,54.4,0.6,81.5c3.2,11.9,0.9,24.4-5.9,34.6c-18.6,28-29.4,61.2-29.4,96.7c0,7.4,0.5,14.8,1.4,22   c7.4,58.1-8.2,116.9-41.9,164.7c-5,7.1-9.9,14.4-14.6,21.8C402,545.1,374.1,473.8,374.1,396c0-176.4,143.5-319.9,319.9-319.9   s319.9,143.5,319.9,319.9C1013.9,473.8,986,545.2,939.6,600.8z"></path></g></g><g id="SvgjsG2076" featureKey="nameRightFeature-0" transform="matrix(2.3778064803852743,0,0,2.3778064803852743,221.72787748626888,3.3963086389074437)" fill="#283c63"><path d="M6.02 6.539999999999999 c0 0.96 -0.04 11.28 0 12.2 c0.02 0.22 0.02 0.44 0.02 0.66 c0 0.16 0.1 0.26 0.24 0.32 c0.12 0.04 0.28 0.08 0.4 0.08 c0.58 -0.06 1.2 0 1.8 -0.02 c1.04 0.08 1.98 -0.16 2.88 -0.64 c0.84 -0.48 1.3 -1.34 1.62 -2.24 c0.26 -0.76 0.22 -1.66 0.08 -2.44 c-0.12 -0.7 -0.44 -1.38 -0.86 -1.94 c-0.06 -0.08 -0.92 -0.62 -0.88 -0.66 c0.52 -0.74 1.26 -1.36 1.36 -2.28 c0.08 -0.8 -0.1 -1.62 -0.38 -2.36 c-0.18 -0.48 -0.42 -0.94 -0.8 -1.3 c-0.64 -0.6 -1.6 -0.86 -2.44 -0.94 c-0.86 -0.08 -1.66 -0.02 -2.52 -0.06 c-0.3 0 -0.44 0.12 -0.44 0.44 c0 0.42 -0.08 0.76 -0.08 1.18 z M8.48 10.18 c-0.02 -0.22 0 -1.98 -0.04 -2.64 c-0.02 -0.24 0.12 -0.36 0.38 -0.3 c0.2 0.04 0.36 0.06 0.52 0.18 c0.5 0.38 0.88 0.84 0.9 1.48 c0 0.32 0 0.64 -0.12 0.94 c-0.14 0.36 -0.34 0.64 -0.7 0.82 c-0.24 0.12 -0.46 0.26 -0.7 0.36 c-0.12 0.04 -0.24 -0.02 -0.26 -0.14 c0 -0.24 0.02 -0.7 0.02 -0.7 z M10.48 15.48 c0 0.1 -0.02 0.28 -0.02 0.46 c-0.02 0.6 -0.8 1.36 -1.7 1.38 c-0.06 0 -0.16 -0.06 -0.18 -0.12 c-0.04 -0.12 -0.08 -0.26 -0.08 -0.4 c-0.02 -0.62 0 -1.22 0 -1.88 c0.06 -0.42 0.02 -0.86 0.02 -1.3 c0.02 -0.34 0.1 -0.4 0.42 -0.46 c0.48 -0.06 0.92 0.14 1.14 0.52 c0.26 0.46 0.36 0.96 0.4 1.48 l0 0.32 z M15.2 15.9 l-0.02 0 c0 0.5 -0.02 1.02 0 1.54 c0.02 0.64 0.06 1.28 0.1 1.92 c0 0.22 0.06 0.28 0.26 0.32 c0.42 0.1 0.82 0.12 1.24 0.12 c1.08 -0.04 2.16 0.04 3.24 0 c0.44 -0.02 0.64 0.02 1.08 -0.06 c0.4 -0.08 0.54 -0.3 0.54 -0.9 c-0.04 -0.38 -0.02 -0.54 -0.02 -1 c0 -0.66 -0.46 -0.88 -0.86 -0.86 c-0.28 0.02 -1.62 -0.02 -2.16 -0.02 c-0.9 0.02 -0.76 0.14 -0.76 -0.8 c0 -0.76 0.02 -1.74 0.02 -2.52 c0 -0.42 0.04 -0.56 0.44 -0.56 l2.5 0 c0.4 0.06 0.68 -0.22 0.68 -0.64 s0.04 -0.44 0.04 -0.86 l-0.06 -0.6 c-0.04 -0.34 -0.16 -0.46 -0.5 -0.46 c-0.22 0 -0.44 0.02 -0.66 0.04 c-0.86 0.06 -1.26 -0.06 -2.1 0 c-0.28 0 -0.32 -0.04 -0.34 -0.3 c-0.08 -0.78 0 -1.64 0.08 -2.42 c0.02 -0.32 0.1 -0.38 0.4 -0.4 l2.82 -0.02 c0.38 -0.04 0.5 -0.02 0.48 -0.4 c-0.04 -0.58 0.02 -1.18 -0.04 -1.76 c-0.04 -0.32 -0.14 -0.38 -0.5 -0.38 c-0.6 0.02 -0.74 0.02 -1.34 0.06 c-0.6 0.02 -3 0.02 -3.58 0.02 c-0.84 0 -0.9 -0.06 -0.92 0.96 c-0.04 0.8 -0.02 1.62 -0.02 2.44 c0 1.4 -0.08 6.42 -0.04 7.54 z M25.48 19.84 c0.06 0.02 0.24 0.02 0.42 0.02 c0.4 0 0.52 -1.44 0.56 -1.74 c0.02 -0.24 0.08 -0.26 0.28 -0.3 c1 -0.12 1.5 -0.04 2.5 -0.02 c0.22 0 0.34 0.1 0.4 0.28 l0.14 0.46 c0.12 0.34 0.22 0.76 0.34 1.1 c0.08 0.24 0.1 0.22 0.34 0.22 c0.32 0 1.48 0 1.82 -0.02 c0.46 0 0.14 -0.94 0.08 -1.1 c-0.18 -0.56 -0.22 -1.14 -0.4 -1.7 c-0.08 -0.24 -2.36 -11.06 -2.46 -11.66 c-0.14 -0.36 -0.02 -0.38 -0.34 -0.38 c-0.68 0 -1.4 0.04 -2.1 0 c-0.28 0 -0.26 0.08 -0.3 0.38 c-0.04 0.28 -0.76 3.46 -1.04 4.78 c-0.36 1.66 -0.68 3.26 -1.08 4.9 c-0.14 0.58 -1.1 4.76 -0.98 4.78 c0.06 0.04 0.16 0.02 0.24 0.02 c0.5 0 0.96 0 1.58 -0.02 z M28.1 15.3 l-0.42 0 c-0.56 0 -0.58 0 -0.44 -0.58 c0.1 -0.44 0.64 -2.82 0.76 -3.4 c0.02 -0.04 0.06 -0.08 0.08 -0.08 c0.04 0 0.08 0.04 0.1 0.06 c0.08 0.24 0.16 0.84 0.24 1.08 c0.18 0.76 0.3 1.4 0.48 2.22 c0.18 0.72 0.1 0.72 -0.26 0.72 c-0.18 0 -0.36 -0.02 -0.54 -0.02 z M37 18.5 c0 -0.52 0 -3.8 0.02 -4.06 c0.02 -0.06 0.06 -0.18 0.14 -0.18 s0.12 0.04 0.14 0.1 c0.8 1.56 1.5 3.12 2.22 4.64 c0.1 0.22 0.32 0.86 0.38 0.92 c0.08 0.12 0.22 0.08 0.34 0.08 l2.2 0.02 c0.26 0 0.32 -0.16 0.26 -0.38 c-0.16 -0.6 -1.3 -2.72 -1.56 -3.24 c-0.18 -0.4 -1.38 -2.72 -1.42 -2.9 c-0.04 -0.08 0.26 -0.22 0.3 -0.28 c0.96 -0.86 1.82 -1.74 2 -3.08 c0.2 -1.32 -0.1 -2.76 -0.96 -3.82 c-0.66 -0.78 -1.52 -1.24 -2.54 -1.3 c-0.62 -0.04 -1.22 0.02 -1.84 0 c-0.54 -0.02 -0.92 -0.02 -1.6 -0.02 c-0.32 0 -0.52 0.18 -0.54 0.52 l0 0.24 c-0.04 1.54 0 3.08 0.02 4.6 c0 2.32 -0.04 8.44 -0.04 9.32 c0 0.26 0.04 0.32 0.28 0.32 c0.14 0 0.3 0.02 0.44 0.02 c0.56 0 0.9 -0.02 1.48 -0.02 c0.44 0 0.28 -0.72 0.28 -1.5 z M37 10.7 l0.02 -2.02 c0.02 -0.3 -0.08 -0.9 0.2 -1.12 c0.38 -0.28 1.16 0 1.5 0.24 c1 0.68 0.92 2.36 0.38 3.3 c-0.26 0.44 -0.7 0.7 -1.2 0.84 c-0.3 0.08 -0.86 0.18 -0.88 -0.3 c0 -0.32 -0.02 -0.94 -0.02 -0.94 z"></path></g>
			</g>
		</svg>
	